<?xml version="1.0" encoding="UTF-8" standalone="no"?>
<!DOCTYPE svg PUBLIC "-//W3C//DTD SVG 1.1//EN"
 "http://www.w3.org/Graphics/SVG/1.1/DTD/svg11.dtd">
<!-- Generated by graphviz version 7.0.0 (20221023.0053)
 -->
<!-- Pages: 1 -->
<svg width="255pt" height="83pt"
 viewBox="0.00 0.00 255.00 83.00" xmlns="http://www.w3.org/2000/svg" xmlns:xlink="http://www.w3.org/1999/xlink">
<g id="graph0" class="graph" transform="scale(1 1) rotate(0) translate(4 79)">
<polygon fill="white" stroke="none" points="-4,4 -4,-79 251,-79 251,4 -4,4"/>
<!-- _0_ -->
<!-- 0 -->
<g id="node2" class="node">
<title>0</title>
<ellipse fill="none" stroke="black" cx="60" cy="-22" rx="18" ry="18"/>
<ellipse fill="none" stroke="black" cx="60" cy="-22" rx="22" ry="22"/>
<text text-anchor="middle" x="60" y="-18.9" font-family="Times,serif" font-size="12.00">1</text>
</g>
<!-- _0_&#45;&gt;0 -->
<g id="edge1" class="edge">
<title>_0_&#45;&gt;0</title>
<path fill="none" stroke="black" d="M1.17,-22C2.86,-22 17.21,-22 31.19,-22"/>
<polygon fill="black" stroke="black" points="31.02,-23.75 36.02,-22 31.02,-20.25 31.02,-23.75"/>
</g>
<!-- 0&#45;&gt;0 -->
<g id="edge2" class="edge">
<title>0&#45;&gt;0</title>
<path fill="none" stroke="black" d="M52.59,-42.99C51.68,-53.09 54.15,-62 60,-62 64.57,-62 67.08,-56.56 67.52,-49.37"/>
<polygon fill="black" stroke="black" points="69.28,-49.47 67.44,-44.5 65.78,-49.53 69.28,-49.47"/>
<text text-anchor="middle" x="60" y="-65.4" font-family="Times,serif" font-size="12.00">b, c</text>
</g>
<!-- 1 -->
<g id="node3" class="node">
<title>1</title>
<ellipse fill="none" stroke="black" cx="146" cy="-22" rx="18" ry="18"/>
<ellipse fill="none" stroke="black" cx="146" cy="-22" rx="22" ry="22"/>
<text text-anchor="middle" x="146" y="-18.9" font-family="Times,serif" font-size="12.00">2</text>
</g>
<!-- 0&#45;&gt;1 -->
<g id="edge3" class="edge">
<title>0&#45;&gt;1</title>
<path fill="none" stroke="black" d="M82.2,-22C92.76,-22 105.67,-22 117.04,-22"/>
<polygon fill="black" stroke="black" points="117,-23.75 122,-22 117,-20.25 117,-23.75"/>
<text text-anchor="middle" x="103" y="-25.4" font-family="Times,serif" font-size="12.00">a</text>
</g>
<!-- 1&#45;&gt;0 -->
<g id="edge4" class="edge">
<title>1&#45;&gt;0</title>
<path fill="none" stroke="black" d="M126.99,-10.1C118.91,-6.11 109.16,-3.09 100,-5 95.22,-6 90.31,-7.61 85.65,-9.46"/>
<polygon fill="black" stroke="black" points="85.23,-7.74 81.31,-11.3 86.6,-10.96 85.23,-7.74"/>
<text text-anchor="middle" x="103" y="-8.4" font-family="Times,serif" font-size="12.00">c</text>
</g>
<!-- 1&#45;&gt;1 -->
<g id="edge5" class="edge">
<title>1&#45;&gt;1</title>
<path fill="none" stroke="black" d="M138.13,-42.99C137.16,-53.09 139.79,-62 146,-62 150.86,-62 153.52,-56.56 153.99,-49.37"/>
<polygon fill="black" stroke="black" points="155.74,-49.47 153.89,-44.5 152.24,-49.54 155.74,-49.47"/>
<text text-anchor="middle" x="146" y="-65.4" font-family="Times,serif" font-size="12.00">a</text>
</g>
<!-- 2 -->
<g id="node4" class="node">
<title>2</title>
<ellipse fill="none" stroke="black" cx="229" cy="-22" rx="18" ry="18"/>
<text text-anchor="middle" x="229" y="-18.9" font-family="Times,serif" font-size="12.00">3</text>
</g>
<!-- 1&#45;&gt;2 -->
<g id="edge6" class="edge">
<title>1&#45;&gt;2</title>
<path fill="none" stroke="black" d="M168.28,-22C179.33,-22 192.87,-22 204.25,-22"/>
<polygon fill="black" stroke="black" points="204.16,-23.75 209.16,-22 204.16,-20.25 204.16,-23.75"/>
<text text-anchor="middle" x="189.5" y="-25.4" font-family="Times,serif" font-size="12.00">b</text>
</g>
<!-- 2&#45;&gt;2 -->
<g id="edge7" class="edge">
<title>2&#45;&gt;2</title>
<path fill="none" stroke="black" d="M222,-39.04C220.57,-48.86 222.91,-58 229,-58 233.76,-58 236.23,-52.42 236.4,-45.3"/>
<polygon fill="black" stroke="black" points="238.16,-45.43 236.1,-40.55 234.67,-45.65 238.16,-45.43"/>
<text text-anchor="middle" x="229" y="-61.4" font-family="Times,serif" font-size="12.00">a, b, c</text>
</g>
</g>
</svg>
