<?xml version="1.0" encoding="UTF-8" standalone="no"?>
<!DOCTYPE svg PUBLIC "-//W3C//DTD SVG 1.1//EN"
 "http://www.w3.org/Graphics/SVG/1.1/DTD/svg11.dtd">
<!-- Generated by graphviz version 7.0.0 (20221023.0053)
 -->
<!-- Title: classes Pages: 1 -->
<svg width="205pt" height="476pt"
 viewBox="0.00 0.00 204.50 476.00" xmlns="http://www.w3.org/2000/svg" xmlns:xlink="http://www.w3.org/1999/xlink">
<g id="graph0" class="graph" transform="scale(1 1) rotate(0) translate(4 472)">
<title>classes</title>
<polygon fill="white" stroke="none" points="-4,4 -4,-472 200.5,-472 200.5,4 -4,4"/>
<!-- StarFree -->
<g id="node1" class="node">
<title>StarFree</title>
<text text-anchor="middle" x="110.5" y="-446.3" font-family="Times,serif" font-size="14.00">StarFree</text>
</g>
<!-- DA -->
<g id="node2" class="node">
<title>DA</title>
<text text-anchor="middle" x="110.5" y="-374.3" font-family="Times,serif" font-size="14.00">DA</text>
</g>
<!-- StarFree&#45;&gt;DA -->
<g id="edge1" class="edge">
<title>StarFree&#45;&gt;DA</title>
<path fill="none" stroke="black" d="M110.5,-432.05C110.5,-421.05 110.5,-406.76 110.5,-395.79"/>
</g>
<!-- LTrivial -->
<g id="node3" class="node">
<title>LTrivial</title>
<text text-anchor="middle" x="30.5" y="-302.3" font-family="Times,serif" font-size="14.00">LTrivial</text>
</g>
<!-- DA&#45;&gt;LTrivial -->
<g id="edge2" class="edge">
<title>DA&#45;&gt;LTrivial</title>
<path fill="none" stroke="black" d="M91.13,-360.05C78.56,-349.05 62.23,-334.76 49.69,-323.79"/>
</g>
<!-- RTrivial -->
<g id="node4" class="node">
<title>RTrivial</title>
<text text-anchor="middle" x="110.5" y="-302.3" font-family="Times,serif" font-size="14.00">RTrivial</text>
</g>
<!-- DA&#45;&gt;RTrivial -->
<g id="edge3" class="edge">
<title>DA&#45;&gt;RTrivial</title>
<path fill="none" stroke="black" d="M110.5,-360.05C110.5,-349.05 110.5,-334.76 110.5,-323.79"/>
</g>
<!-- Band -->
<g id="node5" class="node">
<title>Band</title>
<text text-anchor="middle" x="169.5" y="-230.3" font-family="Times,serif" font-size="14.00">Band</text>
</g>
<!-- DA&#45;&gt;Band -->
<g id="edge4" class="edge">
<title>DA&#45;&gt;Band</title>
<path fill="none" stroke="black" d="M126.3,-360.1C134.68,-350.26 144.47,-337.21 150.5,-324 161.33,-300.29 166.09,-270.17 168.11,-251.75"/>
</g>
<!-- PiecewiseTestable -->
<g id="node6" class="node">
<title>PiecewiseTestable</title>
<text text-anchor="middle" x="66.5" y="-230.3" font-family="Times,serif" font-size="14.00">PiecewiseTestable</text>
</g>
<!-- LTrivial&#45;&gt;PiecewiseTestable -->
<g id="edge5" class="edge">
<title>LTrivial&#45;&gt;PiecewiseTestable</title>
<path fill="none" stroke="black" d="M39.21,-288.05C44.87,-277.05 52.22,-262.76 57.87,-251.79"/>
</g>
<!-- RTrivial&#45;&gt;PiecewiseTestable -->
<g id="edge6" class="edge">
<title>RTrivial&#45;&gt;PiecewiseTestable</title>
<path fill="none" stroke="black" d="M99.85,-288.05C92.93,-277.05 83.95,-262.76 77.05,-251.79"/>
</g>
<!-- Semilattice -->
<g id="node7" class="node">
<title>Semilattice</title>
<text text-anchor="middle" x="117.5" y="-86.3" font-family="Times,serif" font-size="14.00">Semilattice</text>
</g>
<!-- Band&#45;&gt;Semilattice -->
<g id="edge7" class="edge">
<title>Band&#45;&gt;Semilattice</title>
<path fill="none" stroke="black" d="M163.33,-216.15C153.32,-188.82 133.66,-135.14 123.66,-107.82"/>
</g>
<!-- Acom -->
<g id="node8" class="node">
<title>Acom</title>
<text text-anchor="middle" x="90.5" y="-158.3" font-family="Times,serif" font-size="14.00">Acom</text>
</g>
<!-- PiecewiseTestable&#45;&gt;Acom -->
<g id="edge8" class="edge">
<title>PiecewiseTestable&#45;&gt;Acom</title>
<path fill="none" stroke="black" d="M72.31,-216.05C76.08,-205.05 80.98,-190.76 84.74,-179.79"/>
</g>
<!-- Trivial -->
<g id="node9" class="node">
<title>Trivial</title>
<text text-anchor="middle" x="117.5" y="-14.3" font-family="Times,serif" font-size="14.00">Trivial</text>
</g>
<!-- Semilattice&#45;&gt;Trivial -->
<g id="edge10" class="edge">
<title>Semilattice&#45;&gt;Trivial</title>
<path fill="none" stroke="black" d="M117.5,-72.05C117.5,-61.05 117.5,-46.76 117.5,-35.79"/>
</g>
<!-- Acom&#45;&gt;Semilattice -->
<g id="edge9" class="edge">
<title>Acom&#45;&gt;Semilattice</title>
<path fill="none" stroke="black" d="M97.04,-144.05C101.28,-133.05 106.79,-118.76 111.02,-107.79"/>
</g>
</g>
</svg>
